<?xml version="1.0" standalone="no"?>
<!DOCTYPE svg PUBLIC "-//W3C//DTD SVG 20010904//EN"
 "http://www.w3.org/TR/2001/REC-SVG-20010904/DTD/svg10.dtd">
<svg version="1.0" xmlns="http://www.w3.org/2000/svg"
 width="640.000000pt" height="640.000000pt" viewBox="0 0 640.000000 640.000000"
 preserveAspectRatio="xMidYMid meet">
<metadata>
Created by potrace 1.14, written by Peter Selinger 2001-2017
</metadata>
<g transform="translate(0.000000,640.000000) scale(0.100000,-0.100000)"
fill="#000000" stroke="none">
<path d="M0 3200 l0 -3200 268 0 269 0 157 162 c86 89 166 168 179 176 21 15
21 15 5 -4 -22 -25 -55 -135 -63 -207 -5 -45 -10 -57 -21 -53 -11 4 -12 2 -4
-14 5 -10 10 -28 10 -39 0 -19 20 -32 20 -13 2 51 33 228 46 262 17 43 176
277 198 293 7 4 6 10 -4 17 -13 9 -12 12 5 26 41 32 99 56 159 65 33 6 98 21
142 35 88 27 289 74 315 74 14 0 15 -6 6 -46 -14 -62 -34 -73 -120 -65 -38 4
-71 3 -73 -1 -3 -4 1 -8 9 -8 8 0 25 -8 37 -18 l22 -18 -26 -18 c-26 -16 -28
-16 -76 10 -64 35 -77 25 -15 -11 l46 -28 -31 -18 c-37 -23 -47 -24 -30 -4 16
19 2 37 -46 60 -34 16 -40 15 -157 -10 -67 -15 -129 -30 -137 -34 -8 -3 29 -7
82 -9 l97 -3 9 -32 c23 -74 24 -72 -46 -129 -37 -29 -95 -80 -130 -113 -35
-33 -69 -61 -75 -63 -7 -2 12 19 41 47 29 28 46 48 38 45 -18 -7 -19 1 -5 31
9 19 9 19 5 -2 -3 -15 0 -20 10 -16 8 3 11 10 7 16 -4 6 0 8 10 4 8 -3 21 1
28 9 10 12 9 13 -7 7 -17 -6 -18 -5 -5 11 13 16 13 17 -5 14 -11 -2 -18 2 -17
10 5 24 -6 11 -39 -44 -18 -30 -43 -72 -55 -92 -12 -20 -20 -39 -17 -43 2 -4
-10 -22 -26 -41 -32 -34 -120 -161 -120 -172 0 -3 577 -6 1283 -6 l1282 1 46
62 c51 68 103 151 134 210 14 27 35 46 67 63 25 13 97 52 160 87 62 35 140 79
173 97 33 18 87 50 120 70 33 20 84 49 113 64 l54 27 106 -16 c59 -9 174 -22
256 -30 109 -10 153 -18 164 -29 15 -15 12 -16 -28 -15 -42 1 -43 2 -15 10 22
6 17 7 -22 3 -33 -3 -53 -1 -53 6 0 5 -10 10 -22 9 -38 -1 -130 8 -195 20
-192 34 -195 34 -245 -1 -16 -11 -28 -16 -28 -11 0 4 -5 1 -10 -7 -5 -8 -13
-15 -17 -15 -4 -1 -30 -15 -58 -32 -27 -18 -52 -31 -55 -30 -3 1 -19 -8 -37
-21 -17 -12 -35 -22 -39 -22 -4 0 -41 -21 -83 -47 -42 -26 -78 -48 -81 -49
-16 -2 -60 -29 -60 -36 0 -4 -9 -8 -19 -8 -11 0 -26 -6 -33 -13 -14 -15 -59
-41 -70 -42 -11 0 -22 -15 -11 -15 6 0 9 -9 6 -21 -3 -11 -11 -18 -19 -15 -7
3 -16 1 -19 -5 -4 -5 -1 -8 7 -7 18 4 16 -10 -11 -65 -21 -43 -41 -61 -41 -37
0 6 -5 10 -11 10 -6 0 -8 -7 -5 -16 4 -9 0 -27 -9 -40 -8 -13 -12 -29 -10 -36
3 -8 -1 -22 -9 -33 -12 -16 -16 -17 -30 -6 -11 10 -16 10 -16 2 0 -7 -5 -9
-12 -5 -7 4 -8 3 -4 -4 5 -8 161 -11 537 -12 474 0 530 1 536 15 3 9 12 14 19
11 8 -3 14 1 14 10 0 8 -4 12 -10 9 -15 -10 -13 1 34 145 25 74 56 172 69 217
l25 81 -22 6 c-11 3 -39 6 -60 6 -22 0 -36 3 -33 7 4 3 59 0 122 -7 109 -12
115 -14 115 -35 0 -24 -74 -285 -110 -389 -11 -33 -20 -63 -20 -68 0 -4 387
-8 860 -8 l860 0 0 3200 0 3200 -99 0 c-86 0 -100 -2 -105 -17 -5 -17 -33
-147 -106 -483 -30 -138 -78 -345 -157 -675 -43 -184 -47 -189 -312 -535 -107
-140 -247 -322 -309 -405 -191 -250 -284 -365 -294 -365 -5 0 46 72 114 161
438 572 685 908 713 972 8 18 35 135 60 261 57 289 98 457 175 726 34 118 65
223 68 234 12 43 -22 5 -98 -109 -44 -66 -80 -117 -80 -112 0 4 4 15 10 25 9
16 60 142 60 149 0 19 -33 -16 -106 -114 -82 -110 -361 -409 -372 -398 -3 3
-12 -1 -21 -9 -21 -19 -314 -195 -476 -286 -71 -40 -152 -87 -180 -104 -40
-26 -302 -159 -368 -188 -21 -9 -20 -7 37 76 39 56 47 62 156 113 63 29 126
59 140 66 19 9 79 120 262 487 130 261 242 487 247 503 l10 27 -118 0 -119 0
-204 -193 c-190 -180 -209 -195 -268 -215 -35 -12 -60 -18 -55 -13 6 5 55 46
110 91 55 45 142 121 194 169 52 47 112 103 135 123 25 24 35 38 25 38 -8 0
-28 -14 -45 -31 -72 -77 -472 -419 -489 -419 -2 0 -48 -16 -102 -35 -54 -20
-93 -31 -88 -26 6 5 69 54 141 108 72 54 211 166 308 248 154 132 173 150 150
153 -20 3 -141 -73 -542 -341 -285 -189 -532 -352 -550 -361 -39 -20 -82 -37
-82 -32 0 8 150 116 320 230 171 115 236 164 180 136 -52 -27 -388 -255 -486
-330 -56 -43 -116 -86 -134 -95 -31 -16 -32 -16 -25 5 4 11 30 70 58 129 l51
109 211 98 c289 133 737 365 718 371 -5 2 -65 -27 -133 -64 -186 -100 -780
-387 -780 -377 0 26 48 54 237 139 120 54 222 102 228 107 21 18 -17 6 -102
-33 -143 -67 -316 -140 -320 -136 -2 2 7 23 21 47 l24 43 304 117 c295 114
487 192 544 224 27 14 2 15 -307 16 l-336 0 -77 -115 c-101 -151 -224 -373
-311 -562 -60 -131 -74 -154 -102 -167 -32 -15 -32 -15 -23 8 44 116 230 452
381 688 49 77 89 141 89 144 0 22 -59 -25 -251 -198 -273 -246 -455 -428 -619
-616 -155 -179 -157 -182 -251 -376 -115 -239 -286 -683 -275 -713 3 -7 -1
-34 -9 -60 -8 -26 -13 -49 -10 -51 2 -2 -11 -39 -30 -83 -18 -43 -30 -79 -26
-79 3 0 33 54 65 121 240 494 720 1074 1011 1221 126 64 359 161 584 244 163
61 820 289 916 318 67 21 -712 -356 -908 -439 -48 -21 -85 -40 -83 -43 12 -12
353 142 730 330 142 70 261 127 263 124 8 -7 -399 -639 -564 -876 -64 -91
-344 -516 -377 -570 -28 -46 -142 -228 -197 -313 -24 -38 -46 -55 -101 -83
-38 -19 -66 -29 -62 -22 9 15 213 317 363 538 57 85 159 232 226 325 164 231
191 270 350 506 76 112 158 233 183 269 24 35 39 66 34 68 -12 4 -213 -96
-332 -165 -313 -182 -561 -370 -912 -693 -50 -47 -88 -78 -83 -70 17 30 165
216 209 264 25 26 43 52 40 57 -3 5 -2 9 3 8 17 -3 36 1 31 7 -7 6 38 47 110
103 64 50 43 50 -25 0 -185 -136 -335 -275 -513 -477 -35 -41 -78 -81 -94 -89
-29 -15 -29 -15 10 33 209 262 369 417 596 580 53 38 105 74 115 80 10 7 15
15 11 19 -15 15 -266 -142 -438 -273 -286 -219 -434 -379 -623 -674 -65 -102
-87 -128 -139 -164 -34 -24 -67 -44 -72 -44 -6 0 -5 4 3 9 8 5 11 16 8 26 -4
9 -3 14 2 11 4 -3 17 14 27 37 10 23 24 48 31 55 7 8 11 17 8 22 -3 4 2 11 10
14 8 3 14 9 13 14 -4 12 124 197 201 290 225 270 510 522 729 643 69 39 256
132 331 165 30 13 51 27 48 30 -10 10 -335 -147 -497 -239 -312 -179 -366
-227 -568 -497 -63 -85 -134 -180 -157 -210 -56 -74 -188 -275 -214 -327 -40
-79 -79 -133 -125 -174 -25 -22 -46 -36 -46 -30 0 17 94 197 142 273 47 74
147 221 228 337 29 40 47 72 42 70 -14 -5 -218 -293 -295 -415 -31 -50 -82
-143 -112 -205 -50 -106 -61 -121 -158 -216 -57 -57 -106 -103 -109 -103 -3 0
0 26 8 58 72 308 98 402 189 687 19 59 -29 -47 -74 -163 -72 -185 -104 -289
-157 -497 -27 -108 -52 -187 -62 -198 -17 -17 -17 -12 -6 95 6 62 23 151 37
198 14 47 42 141 62 210 76 259 128 408 172 495 164 322 270 494 425 686 133
165 143 176 259 274 93 79 137 123 98 99 -51 -30 -326 -269 -434 -376 -71 -70
-150 -147 -173 -171 -24 -23 -71 -89 -103 -147 -61 -106 -236 -456 -283 -564
-24 -54 -27 -58 -40 -41 -14 19 -12 26 79 275 7 19 35 86 63 148 112 246 202
372 446 620 104 105 187 194 185 196 -8 9 -334 -319 -402 -404 -145 -181 -286
-460 -378 -747 -15 -49 -28 -73 -41 -76 -10 -3 -18 -4 -18 -2 0 2 16 58 35
125 19 67 32 127 28 132 -3 6 -1 8 5 4 10 -6 23 19 27 54 4 24 24 75 66 160
21 44 34 80 29 80 -22 0 -182 -353 -225 -496 -21 -69 -36 -98 -65 -129 -53
-56 -220 -274 -220 -287 0 -6 -2 -9 -6 -6 -7 7 40 287 68 398 21 87 65 204
103 275 12 22 48 87 79 144 31 57 55 105 53 108 -14 13 -185 -311 -221 -417
-46 -136 -166 -597 -166 -637 0 -4 4 -3 9 3 4 5 21 64 36 131 16 68 30 121 32
119 12 -11 -23 -182 -52 -261 -33 -86 -76 -233 -90 -303 -4 -18 -9 -32 -11
-30 -2 2 12 109 30 238 45 316 110 629 145 705 26 56 122 215 379 630 105 169
397 621 414 640 4 5 7 -20 6 -55 l-1 -65 -7 50 -6 50 -133 -270 c-73 -148
-137 -280 -141 -292 -5 -11 -40 -72 -77 -135 -71 -117 -227 -443 -238 -494 -6
-33 -14 -47 131 251 104 214 216 390 378 592 95 119 114 136 188 180 103 61
271 159 318 185 l35 20 -28 -23 c-192 -151 -274 -221 -395 -341 -78 -78 -140
-143 -138 -145 2 -2 62 52 132 120 336 324 517 452 969 681 l70 35 -1897 1
-1898 0 0 -3200z m3590 2187 c0 -2 -10 -12 -22 -23 l-23 -19 19 23 c18 21 26
27 26 19z m-460 -11 c0 -2 -8 -10 -17 -17 -16 -13 -17 -12 -4 4 13 16 21 21
21 13z m1995 -14 c-11 -9 -397 -241 -605 -362 -69 -40 -136 -80 -149 -89 -24
-15 -23 -14 5 29 90 140 94 144 246 221 79 40 224 103 323 140 192 73 194 73
180 61z m-1644 -55 c-6 -8 -7 -18 -3 -22 4 -5 1 -5 -6 -1 -10 6 -10 11 -1 22
6 8 14 14 16 14 3 0 0 -6 -6 -13z m714 -107 c-3 -5 -12 -10 -18 -10 -7 0 -6 4
3 10 19 12 23 12 15 0z m-805 -6 c0 -8 -19 -13 -24 -6 -3 5 1 9 9 9 8 0 15 -2
15 -3z m780 -18 c0 -2 -8 -10 -17 -17 -16 -13 -17 -12 -4 4 13 16 21 21 21 13z
m-840 -39 c0 -2 -12 -14 -27 -28 l-28 -24 24 28 c23 25 31 32 31 24z m300 -50
c0 -2 -15 -16 -32 -33 l-33 -29 29 33 c28 30 36 37 36 29z m1385 -113 c-26
-20 -55 -36 -55 -30 0 5 63 46 70 46 3 -1 -4 -8 -15 -16z m-1499 -26 c4 -7 4
-10 -1 -6 -4 4 -15 2 -24 -5 -14 -11 -14 -10 -2 6 16 20 18 21 27 5z m314 -8
c-6 -11 -13 -20 -16 -20 -2 0 0 9 6 20 6 11 13 20 16 20 2 0 0 -9 -6 -20z
m1469 -231 c-51 -85 -148 -253 -217 -374 -178 -314 -260 -454 -293 -502 -16
-23 -29 -44 -29 -47 0 -6 -11 -24 -104 -168 -20 -32 -46 -63 -57 -69 -11 -6
-18 -17 -15 -24 3 -8 0 -12 -8 -9 -10 4 -242 -171 -353 -266 -18 -15 -24 -16
-33 -5 -8 10 29 44 172 158 178 142 264 221 305 282 21 31 100 167 366 630
213 371 248 436 245 447 -2 5 -47 -22 -99 -60 -125 -91 -353 -246 -455 -310
-85 -53 -295 -164 -300 -159 -2 1 36 31 84 66 48 36 81 66 74 68 -6 3 -51 -17
-100 -44 -48 -28 -181 -103 -297 -168 -115 -65 -243 -136 -282 -157 -55 -30
-73 -45 -74 -61 -1 -12 -5 -4 -11 18 -55 233 -53 217 -32 232 36 28 379 196
469 230 198 76 339 123 442 146 98 23 314 110 378 154 11 7 24 13 30 13 12 0
-197 -125 -310 -184 -44 -23 -141 -66 -215 -95 -231 -91 -700 -327 -700 -353
0 -5 3 -7 8 -5 4 3 37 23 75 46 134 82 473 242 657 311 41 15 93 36 115 46 46
21 455 257 500 288 38 26 149 86 153 82 1 -2 -39 -73 -89 -157z m-3003 -290
c-4 -133 -9 -251 -11 -262 -2 -12 -6 -71 -10 -132 -3 -60 -9 -125 -12 -142 -8
-48 14 -41 66 20 117 139 321 334 335 319 4 -4 6 -1 4 7 -4 18 185 136 206
128 10 -4 15 -17 15 -34 l-2 -28 -4 28 c-3 17 -10 27 -21 27 -15 0 -15 -2 -2
-11 12 -8 10 -9 -9 -4 -15 5 -21 4 -17 -3 10 -17 -5 -62 -20 -62 -8 0 -17 -7
-20 -15 -5 -11 -10 -13 -19 -5 -9 8 -14 7 -18 -2 -2 -7 -8 -10 -12 -5 -5 4 0
13 10 21 13 9 15 15 6 20 -6 4 -14 0 -17 -8 -3 -9 -9 -14 -13 -12 -4 3 -7 -3
-7 -12 -1 -9 -5 -30 -9 -46 -5 -18 -4 -27 2 -23 5 3 10 0 10 -7 0 -8 -5 -12
-12 -10 -9 4 -53 -173 -60 -241 -1 -11 -6 -29 -11 -40 -5 -11 -9 -44 -8 -74 0
-29 -3 -45 -6 -35 -5 14 -9 8 -14 -21 -4 -22 -9 -49 -12 -60 -4 -16 -3 -17 5
-5 9 12 11 9 11 -15 0 -23 -3 -27 -10 -15 -8 13 -10 12 -11 -5 -1 -11 0 -24 1
-30 8 -39 8 -95 1 -90 -5 3 -12 -1 -15 -7 -3 -7 -3 7 -1 32 4 42 4 41 -11 -15
-9 -33 -16 -77 -16 -98 0 -32 -2 -36 -15 -25 -10 8 -11 14 -4 16 6 2 11 9 11
15 0 20 -69 -67 -70 -88 0 -12 -3 -16 -8 -9 -9 15 -115 -124 -108 -142 3 -7 0
-11 -7 -8 -7 2 -18 -5 -25 -16 -15 -24 -8 -25 41 -1 20 9 34 21 30 25 -4 4 1
4 10 0 20 -7 89 25 81 38 -3 4 -15 8 -27 7 -21 0 -21 -1 -2 -9 19 -8 19 -9 -2
-9 -13 -1 -23 -6 -23 -12 0 -5 -5 -7 -10 -4 -6 4 -4 13 6 22 15 15 15 17 -5
25 -21 7 -20 8 7 36 32 34 42 33 19 -2 -17 -25 -13 -36 12 -36 14 0 14 2 1 10
-10 7 -11 10 -2 10 7 0 15 -6 18 -13 7 -18 106 -17 112 1 2 7 15 18 29 23 15
6 23 15 20 23 -4 10 0 12 14 9 16 -5 13 -10 -24 -44 -23 -21 -45 -38 -49 -39
-3 0 -72 -23 -153 -51 l-146 -52 -23 -46 c-30 -60 -40 -91 -28 -91 5 0 37 18
70 40 33 22 65 40 71 40 6 0 47 18 90 39 44 22 82 37 84 34 3 -2 19 3 35 11
17 9 39 13 48 9 11 -4 15 -3 11 4 -4 6 0 14 9 17 13 5 12 1 -3 -24 -9 -17 -24
-30 -33 -30 -13 0 -13 1 0 10 13 8 12 10 -3 10 -10 0 -20 -7 -24 -16 -3 -8
-12 -13 -20 -10 -8 3 -11 1 -8 -4 3 -6 1 -10 -4 -10 -6 0 -11 6 -11 12 0 7
-12 -5 -27 -27 -36 -53 -35 -52 -87 -110 l-45 -50 20 -32 c12 -18 16 -33 10
-33 -6 0 -11 -7 -11 -15 0 -29 -90 -59 -105 -35 -3 5 0 7 8 4 17 -6 87 21 87
33 0 16 -19 37 -27 30 -4 -5 -1 -12 7 -17 8 -5 11 -12 7 -17 -5 -4 -11 -3 -15
2 -13 18 -48 10 -81 -18 -31 -26 -32 -27 -9 -28 20 -1 19 -2 -7 -10 -16 -4
-40 -6 -53 -2 -22 5 -23 9 -18 52 4 25 9 58 12 74 3 15 1 27 -4 27 -12 0 -35
-141 -26 -166 4 -10 14 -27 22 -36 10 -12 11 -18 4 -18 -7 0 -12 6 -12 13 0 9
-2 9 -9 -1 -6 -11 -12 -10 -26 4 -14 15 -16 28 -10 83 3 36 9 81 12 99 3 17 1
32 -4 32 -5 0 -15 -44 -22 -97 -7 -54 -14 -99 -15 -101 -7 -6 -65 21 -69 32
-3 7 1 42 8 77 19 94 24 148 15 154 -9 6 -23 -51 -21 -82 2 -13 0 -23 -2 -23
-11 0 -48 84 -43 97 3 8 2 12 -2 9 -12 -7 -35 36 -87 164 -87 212 -138 325
-154 341 -26 25 -48 -6 -62 -87 -10 -62 -9 -73 7 -105 49 -93 67 -132 108
-239 25 -63 48 -133 51 -155 13 -81 12 -81 82 -113 38 -18 79 -43 92 -57 27
-29 20 -32 -17 -7 -35 24 -94 47 -109 44 -7 -2 -22 2 -33 8 -11 6 -20 7 -20 3
0 -4 20 -19 45 -32 24 -13 43 -28 42 -33 -1 -6 4 -13 12 -16 9 -3 11 0 6 8 -6
9 -3 9 13 1 34 -18 37 -33 7 -25 l-27 7 20 -24 c11 -13 29 -34 39 -47 l18 -23
33 23 c25 18 31 28 27 46 -4 15 -1 22 10 22 8 0 15 6 15 13 0 8 3 9 8 1 19
-29 52 -35 143 -25 75 7 100 6 138 -7 25 -8 40 -17 33 -20 -6 -2 -12 -8 -12
-13 0 -6 3 -8 8 -6 4 3 36 -1 72 -9 36 -8 84 -15 108 -15 48 -2 57 -10 43 -38
-8 -14 -7 -22 4 -31 9 -7 19 -10 22 -6 4 4 1 11 -7 16 -11 7 -11 11 -1 24 9
11 19 13 37 5 33 -12 53 -12 34 1 -8 5 -10 10 -5 10 6 0 16 -4 24 -9 10 -6 20
-3 33 12 l19 22 -7 -25 c-6 -22 -5 -23 10 -11 19 16 21 41 3 41 -8 0 -34 -6
-60 -14 -46 -14 -97 -11 -97 5 0 5 -17 9 -38 9 -52 0 -155 19 -167 31 -11 11
202 3 307 -12 37 -5 86 -9 110 -9 41 0 41 -1 21 -15 -12 -8 -30 -12 -40 -9
-12 4 -14 3 -5 -3 20 -15 -28 -51 -58 -43 -49 12 -100 1 -100 -21 0 -6 5 -7
10 -4 6 4 21 0 33 -8 19 -12 22 -22 19 -61 -5 -58 -24 -61 -21 -3 3 45 -5 67
-23 67 -6 0 -6 -6 2 -15 7 -9 10 -18 6 -22 -3 -3 -6 0 -6 7 0 10 -3 11 -11 3
-12 -12 -18 -64 -25 -203 -7 -158 -9 -280 -4 -280 3 0 12 28 19 63 17 82 22
94 15 32 -3 -27 -6 -65 -7 -83 0 -21 -3 -28 -9 -20 -10 16 -11 -6 -1 -42 6
-24 7 -23 18 10 9 26 9 40 1 54 -8 14 -8 20 2 23 6 3 13 21 13 41 1 21 3 29 6
20 8 -31 21 -19 25 22 2 22 0 40 -4 40 -5 0 -8 -10 -8 -22 0 -18 -5 -13 -22
19 -17 34 -19 47 -10 65 10 21 11 19 11 -20 1 -40 2 -42 17 -28 9 9 20 29 24
44 7 19 8 10 5 -33 -2 -33 -4 -74 -4 -92 -1 -23 -5 -31 -15 -27 -10 4 -15 -5
-18 -30 -2 -20 0 -36 4 -36 4 0 9 10 9 23 1 17 2 18 6 4 2 -10 -7 -37 -21 -61
-14 -24 -23 -46 -20 -48 2 -3 -3 -11 -12 -19 -13 -11 -15 -11 -13 2 1 7 -1 32
-6 54 l-8 40 -12 -35 c-13 -37 -10 -54 5 -30 8 13 10 12 10 -2 0 -10 -6 -18
-14 -18 -8 0 -16 -6 -19 -12 -3 -7 -12 -30 -21 -50 -14 -33 -14 -38 -1 -38 8
0 12 6 9 14 -7 18 12 30 22 15 4 -7 12 -1 20 17 7 16 13 22 13 14 0 -8 -6 -26
-14 -40 -8 -14 -14 -19 -15 -11 0 8 -2 12 -5 9 -10 -9 7 -38 22 -38 29 0 318
132 438 200 22 12 60 34 85 48 25 14 40 20 35 14 -29 -32 -354 -197 -515 -261
-69 -27 -81 -29 -135 -21 -118 17 -122 19 -167 79 -68 91 -135 171 -211 251
-39 41 -87 92 -107 113 l-35 39 65 -7 65 -7 39 40 38 40 -21 69 c-21 71 -50
110 -74 100 -7 -3 -37 -45 -67 -93 -65 -109 -78 -124 -96 -117 -23 9 -17 27
53 166 37 72 69 135 71 140 2 4 -1 7 -6 7 -6 0 -40 -55 -75 -122 l-65 -122
-31 62 c-17 34 -51 135 -76 225 -55 201 -70 252 -135 447 -28 85 -57 181 -66
213 l-15 58 51 197 c156 600 170 637 349 859 114 142 140 163 215 172 5 1 6
-100 2 -240z m1081 235 c-3 -3 -12 -4 -19 -1 -8 3 -5 6 6 6 11 1 17 -2 13 -5z
m-676 -67 c-10 -9 -11 -8 -5 6 3 10 9 15 12 12 3 -3 0 -11 -7 -18z m3410 -101
c-6 -7 -104 -66 -217 -131 -112 -65 -203 -120 -200 -123 3 -2 67 30 143 73 76
43 162 91 191 107 l52 29 -96 -148 c-53 -81 -138 -211 -188 -288 -50 -77 -137
-209 -192 -295 -127 -193 -137 -205 -175 -219 -35 -12 -37 -16 32 69 20 25
125 180 234 345 108 165 206 313 217 328 23 34 16 47 -15 28 -12 -7 2 12 32
43 30 30 52 58 48 62 -3 4 -68 -34 -144 -83 -147 -96 -200 -125 -328 -180
-110 -48 -411 -163 -425 -163 -6 0 7 24 29 53 39 52 41 53 330 181 160 72 287
134 284 139 -3 6 -1 7 4 4 6 -4 46 8 89 27 44 18 88 36 98 40 10 4 17 9 14 11
-5 5 -201 -60 -497 -164 -95 -34 -175 -60 -177 -59 -1 2 15 26 36 54 34 45 46
53 97 66 32 9 129 36 216 62 86 25 228 67 315 92 86 25 159 48 161 50 2 2 13
4 24 4 15 0 17 -3 8 -14z m-4184 -28 c-3 -8 -6 -5 -6 6 -1 11 2 17 5 13 3 -3
4 -12 1 -19z m904 -41 c-10 -9 -11 -8 -5 6 3 10 9 15 12 12 3 -3 0 -11 -7 -18z
m2849 -121 c0 -2 -28 -15 -62 -29 -35 -14 -150 -64 -255 -110 -175 -77 -191
-82 -173 -58 29 42 33 44 215 106 94 33 190 67 215 76 46 19 60 22 60 15z
m-2800 -22 c0 -8 -5 -12 -10 -9 -6 4 -8 11 -5 16 9 14 15 11 15 -7z m-563 -46
c-3 -8 -6 -5 -6 6 -1 11 2 17 5 13 3 -3 4 -12 1 -19z m520 -25 c-3 -10 -5 -4
-5 12 0 17 2 24 5 18 2 -7 2 -21 0 -30z m17 -77 c-9 -58 -21 -106 -26 -106 -5
0 -13 12 -18 26 -8 19 -6 29 5 40 13 13 14 12 9 -15 -4 -17 -4 -31 -1 -31 3 0
10 33 17 73 17 108 21 129 27 123 3 -2 -3 -52 -13 -110z m-26 9 c0 -16 -2 -15
-8 5 l-8 25 -1 -24 c-1 -13 -3 -22 -6 -19 -3 3 -2 25 2 49 7 43 7 43 14 14 4
-16 7 -39 7 -50z m-111 -17 c-3 -8 -6 -5 -6 6 -1 11 2 17 5 13 3 -3 4 -12 1
-19z m-3 -34 c3 -8 2 -12 -4 -9 -6 4 -8 -7 -5 -27 5 -30 5 -31 -5 -9 -6 13 -8
32 -5 42 8 23 11 24 19 3z m-7 -106 c-3 -8 -6 -5 -6 6 -1 11 2 17 5 13 3 -3 4
-12 1 -19z m-22 -27 c-4 -17 -11 -31 -16 -31 -11 0 -11 0 2 39 14 39 23 34 14
-8z m144 2 c-1 -16 -4 -39 -8 -53 -6 -18 -8 -11 -8 28 1 28 4 52 9 52 4 0 8
-12 7 -27z m-124 -23 c3 -5 1 -10 -4 -10 -6 0 -11 5 -11 10 0 6 2 10 4 10 3 0
8 -4 11 -10z m2817 -12 c-12 -16 -146 -202 -286 -398 -57 -80 -134 -177 -171
-215 -37 -39 -64 -63 -59 -55 40 71 184 270 348 480 54 68 93 126 87 128 -5 2
-132 -58 -281 -132 -206 -103 -280 -136 -308 -135 -32 0 -13 12 153 96 105 53
185 98 179 100 -7 2 -86 -25 -178 -61 -194 -77 -286 -109 -293 -102 -3 3 5 22
17 43 21 38 23 39 172 82 83 23 152 41 153 39 2 -2 -41 -19 -96 -38 -55 -19
-96 -36 -91 -38 6 -2 156 46 334 107 178 60 325 110 327 110 2 1 -1 -5 -7 -11z
m-2808 -24 c8 -20 8 -109 0 -102 -3 3 -6 18 -7 34 -2 25 -27 49 -27 25 0 -6
-4 -11 -10 -11 -15 0 -12 22 6 48 18 26 30 28 38 6z m2686 7 c-21 -11 -135
-43 -365 -101 -110 -28 -213 -56 -229 -61 -16 -5 -32 -7 -35 -4 -17 17 53 40
294 94 149 34 284 65 300 70 38 12 54 13 35 2z m-2593 -53 c-3 -8 -6 -5 -6 6
-1 11 2 17 5 13 3 -3 4 -12 1 -19z m0 -50 c-3 -7 -5 -2 -5 12 0 14 2 19 5 13
2 -7 2 -19 0 -25z m-12 -100 c-4 -35 -7 -85 -7 -113 0 -47 -1 -48 -8 -15 -5
21 -6 -4 -3 -62 6 -101 1 -117 -37 -138 -12 -6 -16 -4 -16 9 0 11 8 17 21 17
18 -1 20 6 22 64 1 36 -1 59 -4 51 -5 -11 -7 -11 -14 0 -6 9 -9 -1 -9 -28 0
-24 4 -43 9 -43 5 0 7 -9 4 -21 -5 -17 -8 -18 -18 -7 -10 9 -11 28 -5 71 5 32
12 107 15 167 8 109 8 110 33 110 25 0 25 0 17 -62z m-145 24 c0 11 5 15 15
12 17 -7 21 -54 4 -54 -23 0 -49 22 -49 42 0 21 0 21 15 2 13 -17 14 -17 15
-2z m77 -74 c-3 -7 -5 -2 -5 12 0 14 2 19 5 13 2 -7 2 -19 0 -25z m0 -80 c-3
-7 -5 -2 -5 12 0 14 2 19 5 13 2 -7 2 -19 0 -25z m-100 -40 c-3 -8 -6 -5 -6 6
-1 11 2 17 5 13 3 -3 4 -12 1 -19z m-730 -298 c30 -74 64 -152 75 -173 11 -22
17 -41 14 -44 -3 -3 -9 3 -12 13 -15 42 -88 163 -96 158 -4 -3 -8 0 -8 6 0 17
-78 118 -105 136 -29 19 -30 32 -9 126 l16 71 35 -79 c19 -44 59 -140 90 -214z
m645 138 c-11 -11 -52 -2 -52 13 0 5 5 9 10 9 6 0 10 -4 10 -10 0 -5 7 -10 15
-10 20 0 19 16 -1 24 -8 3 -12 11 -9 17 5 6 13 2 22 -11 10 -15 12 -25 5 -32z
m165 -24 c-3 -3 -12 -4 -19 -1 -8 3 -5 6 6 6 11 1 17 -2 13 -5z m1446 -92 c27
-28 33 -55 21 -87 -6 -14 -14 -9 -50 26 -51 50 -60 49 -179 -17 -59 -34 -74
-39 -60 -22 l20 22 -23 -14 c-13 -8 -23 -19 -22 -23 1 -8 -65 -57 -76 -57 -3
0 -2 5 2 12 4 7 3 8 -5 4 -6 -4 -9 -11 -6 -16 3 -4 -3 -14 -12 -21 -12 -10
-14 -10 -9 -1 11 18 -9 15 -25 -5 -12 -14 -12 -16 1 -9 8 4 4 -2 -9 -13 -28
-25 -37 -26 -45 -6 -14 37 25 68 229 179 162 88 202 96 248 48z m-1743 -6 c0
-3 -4 -8 -10 -11 -5 -3 -10 -1 -10 4 0 6 5 11 10 11 6 0 10 -2 10 -4z m2290
-30 c0 -2 -7 -7 -16 -10 -8 -3 -12 -2 -9 4 6 10 25 14 25 6z m-2740 -264 c0
-45 33 -92 65 -92 8 0 15 -4 15 -10 0 -5 -3 -10 -7 -10 -16 0 -133 61 -133 70
0 17 -30 214 -36 235 -3 11 17 -18 45 -65 39 -66 51 -94 51 -128z m654 173
c-4 -8 -15 -15 -25 -15 -10 0 -19 -5 -19 -11 0 -5 5 -7 12 -3 7 4 8 3 4 -5 -4
-6 -12 -8 -18 -5 -7 5 -9 1 -5 -9 7 -19 -9 -23 -17 -4 -3 8 -8 7 -16 -6 -6 -9
-16 -15 -21 -11 -6 4 -2 14 10 25 12 11 21 27 21 35 0 8 4 13 10 9 5 -3 7 -13
4 -23 -2 -9 1 -7 7 5 10 19 23 27 51 32 4 0 5 -6 2 -14z m-94 -122 c0 -1 -8
-11 -17 -21 -10 -9 -28 -31 -40 -47 -22 -29 -23 -29 -20 -6 1 14 -4 26 -13 28
-13 4 -13 3 0 -6 8 -5 11 -13 8 -17 -4 -3 -14 0 -22 9 -14 13 -14 16 1 21 8 4
22 1 30 -6 12 -9 19 -6 38 18 20 25 22 31 9 45 -8 8 -14 19 -14 24 0 4 9 -2
20 -15 11 -13 20 -25 20 -27z m20 31 c0 -8 -5 -12 -10 -9 -6 4 -8 11 -5 16 9
14 15 11 15 -7z m1390 -86 c1 -23 -52 -8 -99 29 -3 2 8 17 24 33 l29 31 23
-43 c12 -24 22 -46 23 -50z m1315 55 c112 -9 66 -19 -131 -28 l-159 -7 -3 28
-2 27 107 -7 c60 -3 144 -9 188 -13z m-2760 -3 c-4 -6 -11 -8 -16 -5 -5 4 -9
1 -9 -4 0 -6 -5 -11 -11 -11 -8 0 -8 5 1 15 14 17 45 21 35 5z m702 -33 c17
-23 33 -50 35 -60 3 -20 13 -19 -252 -32 -69 -3 -138 -8 -155 -10 -16 -3 -51
-7 -77 -9 -26 -3 -96 -14 -155 -26 -344 -68 -342 -68 -361 -47 -16 18 -15 18
9 12 35 -9 358 72 569 142 159 53 231 69 315 71 36 1 43 -3 72 -41z m990 -19
c-3 -8 -6 -5 -6 6 -1 11 2 17 5 13 3 -3 4 -12 1 -19z m1140 16 c-3 -3 -12 -4
-19 -1 -8 3 -5 6 6 6 11 1 17 -2 13 -5z m-3317 -54 c6 -11 8 -20 6 -20 -3 0
-10 9 -16 20 -6 11 -8 20 -6 20 3 0 10 -9 16 -20z m2167 -12 c-3 -8 -6 -5 -6
6 -1 11 2 17 5 13 3 -3 4 -12 1 -19z m-81 -33 c-3 -8 -10 -15 -15 -15 -5 0 -4
11 2 25 12 25 23 16 13 -10z m-1761 5 c-4 -7 3 -9 22 -5 26 5 26 5 5 -5 -25
-11 -46 -5 -37 11 4 5 8 9 11 9 3 0 2 -5 -1 -10z m1544 -34 c22 -12 28 -22 29
-51 1 -24 -2 -34 -10 -29 -8 5 -9 2 -5 -9 3 -10 4 -24 0 -33 -11 -30 -41 38
-36 84 3 31 0 42 -10 42 -7 0 -14 -7 -14 -15 0 -8 4 -12 9 -9 10 6 10 1 2 -20
-4 -11 -14 -14 -33 -11 -25 5 -25 5 -3 -5 13 -5 29 -7 35 -4 9 5 9 3 0 -6 -18
-20 -87 11 -91 41 -4 22 -3 22 22 6 33 -22 46 -21 46 1 0 35 16 40 59 18z
m-767 -53 c-76 -91 -44 -85 -331 -63 -181 13 -258 23 -268 33 -12 11 4 17 104
35 l117 22 21 -20 c51 -48 120 -45 169 6 l31 34 98 0 99 0 -40 -47z m-310 16
c2 5 11 4 22 -4 17 -13 16 -14 -8 -11 -15 2 -32 9 -39 16 -10 12 -9 12 5 2 9
-8 17 -9 20 -3z m1324 -63 c-34 -77 -40 -71 -7 8 14 36 27 61 29 57 2 -5 -8
-34 -22 -65z m-2076 -31 c19 -36 7 -40 -14 -5 -9 17 -13 30 -8 30 5 0 15 -11
22 -25z m1890 -80 c-13 -14 -29 -25 -36 -25 -7 0 -16 -5 -20 -12 -4 -7 -3 -8
4 -4 7 4 12 2 12 -3 0 -6 -11 -10 -25 -9 -24 2 -24 3 -8 20 10 9 24 18 32 20
8 2 23 11 33 21 28 26 35 20 8 -8z m113 -8 c-26 -31 -50 -50 -125 -100 -52
-35 -28 -10 30 31 31 22 70 54 86 71 39 41 45 40 9 -2z m-330 -117 c-4 -4 -23
-10 -40 -13 -25 -5 -33 -3 -33 8 0 10 -9 15 -27 14 l-28 -1 25 -8 c23 -7 23
-8 3 -9 -12 -1 -30 -4 -40 -8 -17 -6 -17 -5 1 15 13 15 31 22 57 22 21 0 41 5
44 10 4 6 11 7 17 4 7 -4 8 -2 4 4 -4 7 -4 17 0 24 5 8 11 0 17 -21 4 -19 5
-37 0 -41z m-906 -57 c-2 -16 -4 -5 -4 22 0 28 2 40 4 28 2 -13 2 -35 0 -50z
m1033 32 c0 -2 -10 -9 -22 -15 -22 -11 -22 -10 -4 4 21 17 26 19 26 11z
m-1129 -101 c-5 -35 -9 -46 -10 -28 -1 34 9 97 15 91 2 -2 0 -30 -5 -63z m869
3 c13 -5 13 -6 -1 -6 -8 -1 -24 6 -35 15 -19 15 -19 15 1 6 11 -5 27 -12 35
-15z m-180 -93 c-33 -54 -60 -94 -60 -90 0 14 92 181 103 188 24 14 16 -3 -43
-98z m245 96 c-11 -5 -27 -9 -35 -9 -9 0 -8 4 5 9 11 5 27 9 35 9 9 0 8 -4 -5
-9z m564 -44 c7 -8 21 -65 32 -126 16 -86 18 -115 9 -126 -7 -7 -17 -11 -23
-7 -6 4 -8 -3 -4 -18 3 -13 2 -33 -2 -44 -6 -13 -10 -2 -15 40 -3 33 -14 99
-23 146 -12 68 -13 90 -4 105 12 19 12 19 6 0 -5 -17 3 -75 22 -156 5 -23 6
-24 13 -5 7 16 9 17 9 3 1 -9 -3 -20 -9 -23 -16 -10 -12 -44 5 -41 8 1 17 5
20 8 10 9 -7 88 -17 82 -6 -4 -9 8 -7 27 1 19 1 48 -1 64 l-3 30 -7 -35 c-7
-33 -7 -32 -9 16 -1 35 -6 54 -15 57 -9 4 -17 -1 -19 -11 -3 -12 -5 -11 -6 6
-1 26 29 31 48 8z m-1452 -48 c-3 -7 -5 -2 -5 12 0 14 2 19 5 13 2 -7 2 -19 0
-25z m543 -123 c0 -2 -10 -9 -22 -15 -22 -11 -22 -10 -4 4 21 17 26 19 26 11z
m965 -177 c-5 -4 -19 -7 -30 -7 -18 1 -18 2 -2 6 15 4 18 12 14 36 -2 17 1 36
7 43 8 9 12 1 16 -30 3 -22 1 -44 -5 -48z m-1125 -43 c-59 -85 -64 -90 -104
-99 l-29 -7 29 34 c32 36 82 79 69 57 -5 -9 -4 -11 4 -6 6 4 8 12 5 18 -5 8
60 78 73 78 2 0 -19 -34 -47 -75z m-460 15 c0 -5 -5 -10 -11 -10 -5 0 -7 5 -4
10 3 6 8 10 11 10 2 0 4 -4 4 -10z m664 -22 c-5 -7 -7 -27 -5 -45 2 -32 1 -33
-34 -33 -39 0 -39 1 3 58 23 30 52 47 36 20z m-269 -338 c-124 -51 -166 -62
-202 -56 -102 18 -100 19 47 42 162 24 184 26 155 14z m425 -125 c-30 -7 -93
-30 -140 -49 -84 -36 -85 -36 -123 -20 -20 10 -35 20 -31 23 7 8 281 58 319
59 20 0 11 -4 -25 -13z m155 -45 c3 -5 1 -10 -4 -10 -6 0 -11 5 -11 10 0 6 2
10 4 10 3 0 8 -4 11 -10z m66 -47 c13 -16 12 -17 -3 -4 -17 13 -22 21 -14 21
2 0 10 -8 17 -17z m164 -143 c19 -7 18 -8 -5 -13 -124 -28 -226 -54 -284 -74
-55 -19 -71 -22 -77 -11 -5 7 -9 16 -9 20 0 19 66 37 190 53 74 10 139 22 145
27 11 9 13 9 40 -2z m-347 -175 c-3 -3 -9 2 -12 12 -6 14 -5 15 5 6 7 -7 10
-15 7 -18z m582 -173 c0 -4 -9 -8 -19 -9 -58 -5 -256 -73 -329 -114 -44 -25
-53 -27 -58 -14 -4 8 -4 21 -1 29 7 16 20 21 231 76 81 21 151 41 153 44 7 7
23 -2 23 -12z m27 -104 c-3 -8 -6 -5 -6 6 -1 11 2 17 5 13 3 -3 4 -12 1 -19z
m-2753 -202 c24 -14 34 -26 27 -30 -6 -4 -9 -11 -6 -16 3 -4 -6 -15 -19 -24
-24 -15 -26 -14 -56 24 -17 22 -29 40 -27 40 3 0 14 3 24 7 15 6 16 4 5 -9
-10 -13 -9 -18 4 -29 10 -8 20 -14 23 -14 3 0 5 -4 3 -10 -1 -5 5 -1 13 9 18
24 20 49 3 43 -7 -2 -21 2 -30 10 -12 11 -21 12 -37 4 -11 -6 -37 -10 -58 -10
-36 1 -36 2 17 14 75 17 70 18 114 -9z m-4 -28 c0 -3 -9 -6 -20 -5 -11 1 -20
5 -20 9 0 3 9 6 20 5 11 -1 20 -5 20 -9z m3125 -39 c66 -10 -106 0 -190 11
-45 6 -36 7 40 3 54 -3 122 -9 150 -14z m-290 -15 c-26 -20 -55 -36 -55 -30 0
5 63 46 70 46 3 -1 -4 -8 -15 -16z m-65 -38 c0 -10 -266 -173 -360 -221 -80
-40 -58 -22 43 36 50 29 141 84 202 121 110 68 115 71 115 64z m-3030 -90 c0
-3 -4 -8 -10 -11 -5 -3 -10 -1 -10 4 0 6 5 11 10 11 6 0 10 -2 10 -4z m-55
-86 c-10 -11 -20 -18 -23 -15 -7 6 18 35 31 35 5 0 2 -9 -8 -20z m2491 -207
c-8 -15 -15 -25 -16 -21 0 12 23 58 27 54 3 -2 -2 -17 -11 -33z"/>
<path d="M4303 4376 c-163 -68 -513 -245 -513 -258 0 -5 87 36 193 90 105 54
253 124 327 156 145 63 171 75 155 76 -5 0 -79 -29 -162 -64z"/>
<path d="M2798 4314 c-29 -15 -37 -34 -15 -34 8 0 7 -4 -3 -10 -8 -5 -10 -10
-4 -10 13 0 39 28 47 53 4 9 5 17 4 17 -1 -1 -14 -8 -29 -16z m2 -24 c0 -5 -2
-10 -4 -10 -3 0 -8 5 -11 10 -3 6 -1 10 4 10 6 0 11 -4 11 -10z"/>
<path d="M2700 4250 c0 -5 5 -10 11 -10 5 0 7 5 4 10 -3 6 -8 10 -11 10 -2 0
-4 -4 -4 -10z"/>
<path d="M1884 3964 c-31 -85 -107 -270 -116 -281 -17 -21 0 -28 22 -8 20 18
116 292 106 302 -3 3 -9 -3 -12 -13z"/>
<path d="M2227 3774 c-10 -13 -13 -24 -7 -24 5 0 10 -5 10 -11 0 -6 -6 -9 -14
-6 -8 3 -20 -1 -27 -10 -11 -13 -10 -18 10 -34 31 -25 41 -16 37 34 -2 23 1
45 6 48 6 4 9 11 7 17 -2 6 -12 -1 -22 -14z m-13 -70 c5 -14 4 -15 -9 -4 -17
14 -19 20 -6 20 5 0 12 -7 15 -16z"/>
<path d="M2146 3672 c-10 -15 -35 -35 -55 -45 -20 -10 -52 -31 -71 -48 -29
-26 -31 -30 -12 -24 15 4 32 1 49 -10 23 -16 25 -16 20 -1 -4 9 -2 16 2 16 5
0 11 -7 15 -15 3 -8 1 -15 -5 -15 -6 0 -8 -4 -5 -9 3 -4 18 -6 32 -3 20 4 25
2 19 -8 -5 -9 -4 -11 4 -6 6 4 9 12 6 17 -4 5 1 16 9 25 9 8 16 19 16 24 0 16
-51 41 -72 34 -14 -4 -18 -2 -14 5 11 17 41 13 70 -10 19 -15 27 -17 26 -8 -4
27 0 39 14 39 8 0 17 5 19 10 3 6 5 7 4 3 -1 -5 -26 -56 -55 -114 -36 -73 -60
-110 -77 -117 -23 -11 -27 -7 -71 54 -26 36 -44 68 -40 71 3 3 8 -1 12 -10 5
-13 10 -14 30 -5 27 13 32 28 9 28 -8 0 -15 -5 -15 -10 0 -7 -6 -7 -18 -1 -11
6 -24 6 -32 1 -12 -7 -7 -45 33 -232 32 -153 52 -227 64 -238 10 -8 14 -11 11
-6 -8 10 44 117 65 134 8 7 18 38 21 70 4 31 25 126 47 210 21 84 39 159 39
166 0 15 -50 40 -59 30 -3 -4 0 -9 7 -11 17 -7 15 -20 -4 -20 -11 0 -14 7 -11
24 6 34 -6 36 -27 5z m24 -44 c0 -4 -6 -5 -14 -2 -8 3 -12 12 -9 21 5 12 7 12
14 1 5 -7 9 -16 9 -20z m-30 -63 c1 -5 -3 -11 -9 -13 -6 -2 -11 1 -11 7 0 6
-9 11 -20 11 -11 0 -20 6 -21 13 0 10 -2 10 -6 0 -2 -7 -12 -13 -21 -13 -15 1
-15 2 1 15 15 11 25 11 52 2 19 -7 35 -16 35 -22z"/>
<path d="M2024 3517 c-22 -12 -22 -12 12 -62 19 -27 34 -44 34 -37 0 6 6 12
14 12 11 0 12 5 3 24 -12 24 -12 24 -20 4 -4 -11 -10 -18 -13 -15 -3 3 0 15 6
27 10 18 8 24 -7 36 -11 8 -13 13 -5 14 7 0 23 -17 35 -37 21 -36 22 -37 25
-14 3 19 6 21 13 10 5 -8 9 -9 9 -4 0 6 -5 17 -11 25 -8 12 -12 12 -16 2 -4
-10 -9 -8 -20 7 -16 24 -29 25 -59 8z m21 -28 c4 -11 4 -23 1 -26 -3 -4 -6 1
-6 10 0 10 -4 17 -10 17 -5 0 -10 5 -10 10 0 18 19 10 25 -11z"/>
<path d="M2515 3250 c-7 -12 2 -12 30 0 19 8 19 9 -2 9 -12 1 -25 -3 -28 -9z"/>
<path d="M2029 3039 c-15 -28 3 -46 22 -23 12 16 12 17 -3 11 -12 -4 -15 -2
-11 8 3 8 10 12 16 8 6 -3 7 -1 3 5 -10 16 -14 15 -27 -9z"/>
<path d="M2096 2919 c-3 -17 -5 -50 -5 -73 l1 -41 9 50 c4 27 11 60 14 72 3
13 1 23 -4 23 -4 0 -11 -14 -15 -31z"/>
<path d="M2357 2918 c-10 -11 -16 -22 -13 -26 4 -3 13 3 21 14 15 19 15 19 30
0 8 -11 15 -16 15 -10 -1 10 -25 44 -31 43 -2 0 -12 -10 -22 -21z"/>
<path d="M2160 2801 c0 -5 7 -15 17 -22 15 -13 15 -12 4 9 -12 23 -21 28 -21
13z"/>
<path d="M2335 2730 c-11 -5 -15 -9 -10 -9 6 -1 18 -14 28 -30 20 -34 22 -50
5 -33 -7 7 -17 12 -22 12 -6 0 7 -17 28 -39 37 -37 38 -38 84 -29 26 5 83 12
127 16 59 5 80 11 80 21 0 9 -15 15 -45 18 -25 2 -72 9 -105 14 -33 5 -71 10
-85 10 l-25 -1 25 21 c14 12 18 19 10 16 -9 -3 -24 1 -35 9 -21 16 -31 16 -60
4z m45 -14 c0 -11 -19 -15 -25 -6 -3 5 1 10 9 10 9 0 16 -2 16 -4z m20 -21
c-10 -12 -7 -19 13 -38 19 -17 23 -27 16 -38 -8 -11 -12 -11 -16 -1 -2 6 -8
10 -12 8 -4 -3 -13 0 -21 5 -13 8 -13 10 -1 18 11 7 12 13 3 23 -9 11 -9 17 0
26 17 17 33 15 18 -3z m67 -81 c-3 -3 -12 -4 -19 -1 -8 3 -5 6 6 6 11 1 17 -2
13 -5z"/>
<path d="M2390 2642 c0 -4 10 -9 22 -9 18 -2 20 0 8 7 -18 12 -30 13 -30 2z"/>
<path d="M2695 2680 c-3 -4 5 -10 17 -13 12 -4 25 -2 28 3 3 4 21 10 40 13 21
2 12 4 -23 4 -32 0 -60 -3 -62 -7z"/>
<path d="M2695 2630 c-3 -5 1 -10 10 -10 9 0 13 5 10 10 -3 6 -8 10 -10 10 -2
0 -7 -4 -10 -10z"/>
<path d="M2597 2601 c29 -4 57 -11 63 -17 5 -5 13 -39 17 -74 l7 -65 8 54 c5
30 13 60 19 67 7 8 7 14 -1 19 -9 6 -14 -1 -11 -17 0 -5 -3 -8 -9 -8 -5 0 -10
5 -10 11 0 25 -30 39 -82 38 l-53 -2 52 -6z"/>
<path d="M2515 2322 c6 -4 16 -18 22 -32 6 -14 12 -19 12 -12 1 20 -18 52 -32
52 -8 0 -8 -3 -2 -8z"/>
<path d="M2198 2278 c7 -9 54 -23 119 -34 88 -15 114 -24 140 -47 17 -15 34
-23 37 -18 3 5 -7 21 -24 34 -28 24 -56 32 -190 56 -30 5 -64 13 -75 17 -17 7
-18 6 -7 -8z"/>
<path d="M2296 2172 c-11 -18 48 -66 120 -98 43 -19 80 -34 81 -34 10 0 -1 28
-22 56 -18 24 -43 38 -100 57 -41 14 -77 22 -79 19z"/>
<path d="M2380 2076 c0 -2 23 -16 50 -30 56 -29 68 -28 18 1 -36 21 -68 34
-68 29z"/>
<path d="M2490 2016 c0 -2 7 -7 16 -10 8 -3 12 -2 9 4 -6 10 -25 14 -25 6z"/>
<path d="M2755 3617 c-4 -35 -5 -73 -3 -83 2 -10 8 16 12 59 4 43 6 81 3 84
-3 2 -8 -24 -12 -60z"/>
<path d="M4045 3249 c-26 -18 -27 -20 -6 -14 31 9 101 -13 95 -30 -3 -7 2 -15
11 -19 10 -3 18 1 22 11 4 9 1 19 -5 21 -7 2 -10 8 -7 13 4 5 -2 6 -11 2 -10
-4 -15 -2 -11 3 3 6 2 16 -4 24 -7 12 -9 10 -9 -7 0 -15 -5 -21 -14 -17 -8 3
-14 11 -12 17 1 7 1 9 -1 5 -3 -5 -9 -8 -14 -8 -6 0 -7 5 -4 10 8 13 5 12 -30
-11z m115 -49 c0 -5 -2 -10 -4 -10 -3 0 -8 5 -11 10 -3 6 -1 10 4 10 6 0 11
-4 11 -10z"/>
<path d="M3980 3215 c-11 -13 -10 -14 4 -9 9 3 16 10 16 15 0 13 -6 11 -20 -6z"/>
<path d="M3933 3190 c-13 -5 -23 -11 -23 -14 0 -7 40 6 46 15 6 10 6 10 -23
-1z"/>
<path d="M3809 3113 c-13 -17 -13 -17 6 -3 11 8 22 16 24 17 2 2 0 3 -6 3 -6
0 -17 -8 -24 -17z"/>
<path d="M3864 2999 c-18 -20 -18 -21 1 -35 26 -19 40 -18 24 3 -12 15 -12 16
3 10 12 -4 15 -2 12 8 -3 8 -13 11 -22 7 -15 -5 -15 -4 -3 11 19 24 8 21 -15
-4z"/>
<path d="M3860 2788 c0 -41 1 -42 18 -24 12 13 14 20 5 23 -7 3 -13 9 -13 14
0 6 5 7 10 4 6 -3 10 -2 10 3 0 6 -7 12 -15 16 -12 4 -15 -3 -15 -36z"/>
<path d="M3750 2800 c0 -5 5 -10 10 -10 6 0 10 5 10 10 0 6 -4 10 -10 10 -5 0
-10 -4 -10 -10z"/>
<path d="M3680 2515 c-24 -14 -24 -14 -3 -15 12 0 25 5 28 11 11 17 2 18 -25
4z"/>
<path d="M3066 1890 c-16 -17 -22 -30 -15 -28 18 4 34 19 42 41 9 23 7 22 -27
-13z"/>
<path d="M3306 1892 l-19 -27 24 22 c12 12 21 24 18 27 -2 2 -13 -8 -23 -22z"/>
<path d="M3678 6293 c-80 -60 -196 -144 -257 -188 -108 -77 -126 -93 -97 -82
22 9 516 366 516 373 0 13 -32 -8 -162 -103z"/>
<path d="M5263 6118 c-78 -156 -188 -372 -245 -480 -56 -108 -99 -200 -95
-205 5 -4 47 13 95 38 48 25 152 79 232 120 152 78 157 81 400 316 49 47 66
58 66 44 0 -10 -5 -17 -11 -15 -10 4 -41 -38 -45 -61 -1 -5 -6 -9 -10 -8 -4 1
-14 -4 -20 -12 -7 -8 -9 -15 -4 -15 4 0 -14 -22 -41 -50 -27 -27 -46 -52 -43
-55 7 -7 213 207 269 280 50 66 229 328 247 361 l12 22 -152 1 -151 1 -159
-101 c-87 -56 -160 -100 -163 -98 -2 2 -7 32 -10 65 l-7 61 63 36 c73 41 64
50 -11 12 l-50 -25 0 25 c0 14 -6 25 -13 25 -7 0 -76 -127 -154 -282z"/>
<path d="M2403 5468 c-111 -163 -328 -580 -321 -615 2 -9 20 23 41 73 53 122
143 291 238 446 44 72 78 133 75 135 -2 2 -17 -15 -33 -39z"/>
<path d="M1468 624 c27 -19 83 -11 63 9 -9 9 -16 8 -32 -1 -12 -8 -18 -9 -14
-3 4 7 -3 11 -17 11 l-22 0 22 -16z"/>
<path d="M1200 523 c0 -17 -13 -43 -30 -63 -34 -40 -36 -46 -16 -53 10 -4 13
-1 10 7 -3 7 2 18 10 25 12 10 14 7 13 -16 -1 -15 -6 -31 -12 -35 -6 -5 -5 -8
3 -8 7 0 15 7 18 15 4 8 9 13 13 11 3 -2 12 3 20 11 12 13 11 15 -10 9 -13 -3
-18 -3 -11 0 10 5 10 9 1 20 -8 9 -8 14 -1 14 6 0 14 -4 17 -10 8 -13 25 -13
25 0 0 6 -13 13 -29 16 -24 5 -27 9 -18 19 10 11 14 10 20 -1 9 -16 27 -19 27
-3 0 5 -5 7 -11 3 -8 -4 -9 1 -4 17 14 44 21 41 27 -10 2 -19 11 -36 19 -39 8
-2 10 0 4 5 -5 4 -11 17 -13 28 -7 52 -13 64 -27 59 -8 -4 -15 -14 -16 -23 0
-11 -3 -9 -9 7 -12 30 -20 28 -20 -5z"/>
<path d="M4700 475 c-7 -9 -13 -29 -14 -45 -1 -17 -5 -30 -10 -30 -5 0 -6 -3
-3 -6 4 -4 13 -1 22 6 12 10 15 10 15 -4 0 -9 -4 -16 -10 -16 -5 0 -7 -7 -4
-15 3 -8 2 -20 -2 -27 -6 -9 -10 -6 -15 12 l-7 25 -1 -25 c-1 -20 -3 -22 -12
-10 -9 13 -10 13 -6 0 2 -8 10 -14 16 -12 6 1 11 -5 11 -13 0 -8 -4 -15 -10
-15 -5 0 -10 -5 -10 -11 0 -8 4 -8 14 0 11 9 15 9 19 -1 2 -7 2 -3 1 9 -2 12
0 24 5 27 4 3 14 33 21 66 8 40 20 66 34 77 18 13 18 15 2 9 -10 -3 -24 -2
-31 4 -9 7 -16 6 -25 -5z m30 -16 c0 -6 -5 -7 -10 -4 -7 4 -9 -3 -5 -22 4 -23
4 -24 -4 -8 -9 19 -10 19 -10 1 -1 -11 -4 -16 -7 -13 -10 9 17 68 27 61 5 -3
9 -10 9 -15z"/>
<path d="M4641 303 c0 -6 -4 -20 -7 -30 -5 -14 -4 -15 5 -7 7 7 11 20 8 30 -3
11 -5 14 -6 7z"/>
<path d="M4670 241 c0 -14 -5 -18 -20 -14 -11 3 -20 10 -20 17 -1 6 -7 -7 -15
-29 -15 -40 -12 -75 6 -75 5 0 9 7 9 16 0 8 -4 12 -10 9 -12 -8 -13 15 -1 33
6 10 10 3 15 -22 6 -32 30 -66 25 -35 -1 8 3 27 9 42 20 48 25 77 13 77 -6 0
-11 -9 -11 -19z"/>
<path d="M3603 215 c-15 -16 -16 -25 -5 -25 4 0 13 9 20 20 14 23 3 26 -15 5z"/>
<path d="M3567 176 c-3 -8 -2 -18 4 -22 16 -9 22 2 11 21 -8 15 -10 16 -15 1z"/>
<path d="M4586 125 c-9 -35 -1 -43 14 -15 8 14 8 26 2 32 -6 6 -12 0 -16 -17z"/>
<path d="M3520 98 c-40 -50 -54 -72 -42 -64 6 3 14 2 17 -4 11 -18 36 10 30
31 -4 11 0 26 9 35 9 8 16 20 16 25 0 13 -2 11 -30 -23z m0 -49 c0 -5 -4 -9
-10 -9 -5 0 -10 7 -10 16 0 8 5 12 10 9 6 -3 10 -10 10 -16z"/>
<path d="M4621 118 c-1 -10 -5 -18 -11 -18 -5 0 -10 -7 -10 -16 0 -14 2 -15
18 -3 15 12 16 12 6 -1 -7 -8 -15 -31 -18 -50 -6 -30 -4 -28 13 13 14 34 17
55 11 70 -7 18 -9 18 -9 5z"/>
<path d="M4574 43 c1 -47 10 -56 20 -21 8 33 7 50 -3 44 -5 -4 -11 0 -14 6 -2
7 -4 -6 -3 -29z"/>
<path d="M762 48 c4 -8 2 -21 -4 -29 -8 -11 -8 -9 -4 5 7 19 6 19 -14 1 -11
-10 -20 -19 -20 -19 0 -1 15 -1 33 -2 29 -1 33 2 32 24 0 14 -6 27 -14 30 -9
3 -12 0 -9 -10z"/>
</g>
</svg>
